<svg xmlns="http://www.w3.org/2000/svg" viewBox="0 0 64 64">
  <rect width="64" height="64" rx="18" fill="#061f1a"/>
  <path d="M18 48l3.4-9.2A16.7 16.7 0 1117 27.5c0 3.2.9 6.1 2.5 8.6L18 48z" fill="#25d366"/>
  <path d="M28.2 22.1c-.4-.9-.8-.9-1.2-.9h-1c-.3 0-.9.1-1.4.7s-1.8 1.8-1.8 4.3 1.9 5 2.1 5.3c.2.3 3.7 5.9 9.2 8 4.6 1.8 5.5 1.4 6.5 1.3 1-.1 3.2-1.3 3.7-2.6.5-1.3.5-2.4.3-2.6-.1-.2-.5-.3-1.1-.6l-3.8-1.9c-.6-.2-1-.3-1.4.3-.4.6-1.6 1.9-1.9 2.3-.4.4-.7.4-1.3.1-.6-.3-2.5-.9-4.8-2.9-1.8-1.6-3-3.5-3.3-4.1-.4-.6 0-.9.3-1.2.3-.3.6-.7.9-1 .3-.4.4-.6.6-1 .2-.4.1-.8 0-1.1l-1.7-3.8z" fill="#f7fff6"/>
</svg>
